<svg width="28" height="28" viewBox="0 0 28 28" fill="none" xmlns="http://www.w3.org/2000/svg">
<path fill-rule="evenodd" clip-rule="evenodd" d="M7.72517 9.09156C8.22692 9.32237 8.44656 9.91621 8.21576 10.418L6.39106 14.3847H12.6086L10.7839 10.418C10.5531 9.91621 10.7727 9.32237 11.2745 9.09156C11.7762 8.86076 12.3701 9.0804 12.6009 9.58214L14.81 14.3847H16.72C17.928 14.3847 18.8603 15.4474 18.703 16.6451L17.501 25.7989C17.3703 26.7943 16.5219 27.5385 15.518 27.5385H3.48164C2.47772 27.5385 1.62937 26.7943 1.49866 25.7989L0.296643 16.6451C0.139369 15.4474 1.07164 14.3847 2.27962 14.3847H4.1896L6.39878 9.58214C6.62958 9.0804 7.22343 8.86076 7.72517 9.09156ZM2.27962 16.3847H16.72L15.518 25.5385H3.48164L2.27962 16.3847Z" fill="white"/>
<circle cx="19.5" cy="8.49998" r="8.5" fill="#E3BF77"/>
<path d="M22.5939 10.68V12H17.3039V10.95L20.0039 8.39998C20.2905 8.12665 20.4839 7.89332 20.5839 7.69998C20.6839 7.49998 20.7339 7.30332 20.7339 7.10998C20.7339 6.82998 20.6372 6.61665 20.4439 6.46998C20.2572 6.31665 19.9805 6.23998 19.6139 6.23998C19.3072 6.23998 19.0305 6.29998 18.7839 6.41998C18.5372 6.53332 18.3305 6.70665 18.1639 6.93998L16.9839 6.17998C17.2572 5.77332 17.6339 5.45665 18.1139 5.22998C18.5939 4.99665 19.1439 4.87998 19.7639 4.87998C20.2839 4.87998 20.7372 4.96665 21.1239 5.13998C21.5172 5.30665 21.8205 5.54665 22.0339 5.85998C22.2539 6.16665 22.3639 6.52998 22.3639 6.94998C22.3639 7.32998 22.2839 7.68665 22.1239 8.01998C21.9639 8.35332 21.6539 8.73332 21.1939 9.15998L19.5839 10.68H22.5939Z" fill="white"/>
</svg>
